<?xml version="1.0" encoding="UTF-8" standalone="no"?><svg xmlns="http://www.w3.org/2000/svg" xmlns:xlink="http://www.w3.org/1999/xlink" fill="#000000" height="92.9" preserveAspectRatio="xMidYMid meet" version="1" viewBox="0.0 -1.1 125.3 92.9" width="125.3" zoomAndPan="magnify"><g><g><g fill="#09689f" id="change1_1"><path d="M33.18,34.071c0-7.42,2.81-14.18,7.43-19.28l-0.16-0.14H6.42c-3.55,0-6.42,2.87-6.42,6.41v38.09 c0,3.54,2.87,6.41,6.42,6.41h37.69l14.45,12.21v-14.97l0.02-0.16C44.28,60.981,33.18,48.821,33.18,34.071z" fill="inherit"/><path d="M67.95,28.821c-0.2-4.05-1.87-7.28-4.72-8.3c-4.51-1.61-10.25,2.93-12.83,10.14 c-2.58,7.2-1.01,14.35,3.5,15.97c4.51,1.61,10.25-2.93,12.83-10.14c0.73-2.06,1.13-4.11,1.22-6.03V28.821z" fill="inherit"/><path d="M122.82,12.951c-1.16-4.43-4.16-7.9-8.12-9.54l-6.94-2.89c-3.83-1.59-8.37,0.58-10.14,4.85 l-3.17,7.61c-0.48,1.16-0.71,2.35-0.71,3.51c0,3.11,1.64,5.94,4.43,7.1c3.01,1.25,4.84,4.43,4.63,8.01 c-0.25,4.25-1.11,10.21-3.62,16.26c-2.52,6.05-6.14,10.87-8.97,14.04c-1.69,1.89-3.96,2.92-6.21,2.92 c-0.93,0-1.86-0.17-2.74-0.54c-3.82-1.59-8.36,0.58-10.14,4.85l-3.16,7.61c-1.77,4.27-0.11,9.02,3.72,10.61l6.94,2.88 c3.97,1.65,8.54,1.32,12.5-0.98c6.67-3.89,16.52-12.98,25.34-34.21C125.28,33.821,124.77,20.421,122.82,12.951z" fill="inherit"/></g><g><g id="change2_1"><path d="M6.42,65.561c-3.55,0-6.42-2.87-6.42-6.41v-38.09c0-3.54,2.87-6.41,6.42-6.41h34.03l0.16,0.14 c-4.62,5.1-7.43,11.86-7.43,19.28c0,14.75,11.1,26.91,25.4,28.57l-0.02,0.16v14.97l-14.45-12.21H6.42z" fill="#ebeff8"/></g><g id="change3_1"><path d="M67.95,28.821v1.64c-0.09,1.92-0.49,3.97-1.22,6.03c-2.58,7.21-8.32,11.75-12.83,10.14 c-4.51-1.62-6.08-8.77-3.5-15.97c2.58-7.21,8.32-11.75,12.83-10.14C66.08,21.541,67.75,24.771,67.95,28.821z" fill="#04446b"/></g></g><g><g id="change3_2"><path d="M61.95,63.841c-1.14,0-2.313-0.069-3.486-0.207C43.48,61.895,32.18,49.186,32.18,34.072 c0-7.393,2.73-14.479,7.688-19.951c5.619-6.239,13.667-9.819,22.082-9.819c7.764,0,15.11,2.97,20.685,8.361 c1.846,1.764,7.543,8.445,3.151,20.169c-4.092,10.933-10.299,11.156-10.561,11.16c-4.57,0-8.275-3.706-8.275-8.261v-17.09 c0-0.553,0.448-1,1-1s1,0.447,1,1v17.09c0,3.452,2.808,6.261,6.26,6.261c0.023-0.002,5.133-0.321,8.704-9.861 c3.962-10.577-1.038-16.472-2.665-18.026C76.044,9.071,69.192,6.301,61.95,6.301c-7.848,0-15.355,3.339-20.597,9.159 c-4.626,5.107-7.173,11.716-7.173,18.611c0,14.099,10.539,25.953,24.515,27.576c1.098,0.128,2.192,0.193,3.255,0.193 c15.313,0,27.77-12.457,27.77-27.77c0-0.553,0.448-1,1-1s1,0.447,1,1C91.72,50.487,78.365,63.841,61.95,63.841z" fill="#04446b"/></g><g id="change4_2"><path d="M26.98,28.631H11.6c-0.552,0-1-0.447-1-1s0.448-1,1-1h15.38c0.552,0,1,0.447,1,1 S27.532,28.631,26.98,28.631z" fill="#5294ba"/></g><g id="change4_1"><path d="M29.28,43.601H6.07c-0.552,0-1-0.447-1-1s0.448-1,1-1h23.21c0.552,0,1,0.447,1,1 S29.832,43.601,29.28,43.601z" fill="#5294ba"/></g></g></g></g></svg>
