<?xml version="1.0" encoding="UTF-8" standalone="no"?><svg xmlns="http://www.w3.org/2000/svg" xmlns:xlink="http://www.w3.org/1999/xlink" fill="#07689F" height="133.5" preserveAspectRatio="xMidYMid meet" version="1" viewBox="22.2 33.2 155.6 133.5" width="155.6" zoomAndPan="magnify"><g><g id="change1_1"><path d="M 100 105.160156 C 108.789062 105.160156 115.941406 112.3125 115.941406 121.105469 C 115.941406 129.890625 108.789062 137.042969 100 137.042969 C 91.210938 137.042969 84.058594 129.890625 84.058594 121.105469 C 84.058594 112.3125 91.210938 105.160156 100 105.160156 Z M 79.410156 132.539062 C 80.902344 133.507812 82.085938 134.625 82.582031 136.367188 C 82.800781 137.132812 83.054688 137.882812 83.296875 138.640625 C 84.039062 141.007812 85.835938 142.394531 88.320312 142.476562 C 89.386719 142.511719 90.460938 142.472656 91.53125 142.496094 C 92.355469 142.515625 93.097656 142.742188 93.859375 143.144531 C 94.925781 143.710938 95.816406 144.488281 96.789062 145.164062 C 98.910156 146.640625 101.160156 146.664062 103.257812 145.148438 C 103.652344 144.859375 104.0625 144.59375 104.429688 144.269531 C 106.003906 142.890625 107.777344 142.164062 109.898438 142.480469 C 110.480469 142.480469 111.0625 142.496094 111.640625 142.480469 C 114.148438 142.410156 115.917969 141.09375 116.707031 138.71875 C 116.988281 137.875 117.269531 137.035156 117.507812 136.183594 C 117.816406 135.089844 118.402344 134.191406 119.285156 133.5 C 120.128906 132.84375 121.015625 132.242188 121.875 131.605469 C 123.792969 130.1875 124.507812 128.167969 123.902344 125.863281 C 123.699219 125.09375 123.53125 124.300781 123.203125 123.585938 C 122.164062 121.34375 122.828125 119.207031 123.664062 117.148438 C 124.5625 114.953125 124.074219 112.414062 122.207031 110.9375 C 121.320312 110.238281 120.390625 109.59375 119.480469 108.917969 C 118.683594 108.332031 117.980469 107.605469 117.6875 106.6875 C 117.320312 105.527344 116.953125 104.367188 116.554688 103.214844 C 115.816406 101.085938 114.246094 100.019531 112.085938 99.804688 C 111.085938 99.703125 110.066406 99.769531 109.058594 99.789062 C 107.695312 99.816406 106.46875 99.4375 105.367188 98.628906 C 104.800781 98.214844 104.234375 97.792969 103.667969 97.382812 C 100.996094 95.449219 98.867188 95.40625 96.320312 97.453125 C 94.257812 99.117188 92.070312 100.175781 89.355469 99.773438 C 89.054688 99.730469 88.742188 99.761719 88.4375 99.769531 C 85.914062 99.835938 84.15625 101.113281 83.335938 103.5 C 83.046875 104.335938 82.785156 105.1875 82.527344 106.03125 C 82.132812 107.300781 81.402344 108.316406 80.316406 109.089844 C 79.492188 109.671875 78.660156 110.246094 77.878906 110.882812 C 76.175781 112.269531 75.5625 114.058594 76.074219 116.199219 C 76.230469 116.851562 76.398438 117.515625 76.679688 118.117188 C 77.707031 120.316406 77.40625 122.460938 76.523438 124.597656 C 74.820312 128.726562 76.792969 130.84375 79.410156 132.539062" fill="#07689F"/></g><g id="change1_2"><path d="M 101.695312 123.347656 C 101.351562 123.09375 100.585938 122.78125 99.402344 122.394531 C 98.332031 122.058594 97.503906 121.726562 96.898438 121.394531 C 96.300781 121.066406 95.8125 120.605469 95.4375 120.011719 C 95.0625 119.417969 94.878906 118.726562 94.878906 117.933594 C 94.878906 116.902344 95.214844 115.96875 95.882812 115.140625 C 96.179688 114.773438 96.554688 114.46875 97.003906 114.230469 C 97.417969 114.007812 97.890625 113.84375 98.433594 113.726562 C 98.480469 113.71875 98.527344 113.710938 98.582031 113.699219 L 98.582031 111.769531 L 101.417969 111.769531 L 101.417969 113.6875 C 101.480469 113.699219 101.546875 113.714844 101.609375 113.722656 C 103.417969 114.097656 104.609375 115.183594 105.183594 116.984375 L 102.578125 117.957031 L 102.515625 117.980469 C 102.273438 117.359375 101.980469 116.875 101.625 116.535156 C 101.183594 116.230469 100.613281 116.074219 99.917969 116.074219 C 99.601562 116.074219 99.316406 116.105469 99.070312 116.167969 C 98.75 116.253906 98.5 116.382812 98.304688 116.566406 C 97.964844 116.898438 97.789062 117.296875 97.789062 117.761719 C 97.789062 118.246094 97.964844 118.617188 98.304688 118.863281 C 98.652344 119.109375 99.414062 119.429688 100.597656 119.808594 C 101.667969 120.144531 102.496094 120.484375 103.101562 120.816406 C 103.699219 121.144531 104.1875 121.605469 104.5625 122.195312 C 104.9375 122.789062 105.121094 123.484375 105.121094 124.269531 C 105.121094 125.304688 104.785156 126.242188 104.117188 127.066406 C 103.820312 127.433594 103.445312 127.742188 102.996094 127.980469 C 102.585938 128.203125 102.109375 128.367188 101.566406 128.480469 C 101.519531 128.492188 101.472656 128.5 101.417969 128.511719 L 101.417969 130.433594 L 98.582031 130.433594 L 98.582031 128.519531 C 98.519531 128.507812 98.453125 128.496094 98.390625 128.480469 C 96.582031 128.113281 95.390625 127.023438 94.816406 125.226562 L 97.421875 124.253906 L 97.484375 124.222656 C 97.726562 124.851562 98.019531 125.335938 98.375 125.671875 C 98.816406 125.980469 99.382812 126.132812 100.082031 126.132812 C 100.398438 126.132812 100.683594 126.105469 100.929688 126.039062 C 101.25 125.957031 101.5 125.824219 101.695312 125.640625 C 102.042969 125.304688 102.210938 124.910156 102.210938 124.445312 C 102.210938 123.964844 102.042969 123.59375 101.695312 123.347656 Z M 100 133.550781 C 106.875 133.550781 112.449219 127.976562 112.449219 121.101562 C 112.449219 114.226562 106.875 108.652344 100 108.652344 C 93.125 108.652344 87.550781 114.226562 87.550781 121.101562 C 87.550781 127.976562 93.125 133.550781 100 133.550781" fill="#07689F"/></g><g id="change1_3"><path d="M 78.648438 140.101562 C 78.578125 139.886719 78.507812 139.664062 78.4375 139.441406 C 78.257812 138.890625 78.074219 138.316406 77.898438 137.707031 C 77.859375 137.570312 77.78125 137.289062 76.761719 136.628906 C 75.277344 135.667969 73.167969 134.101562 71.960938 131.601562 C 71.894531 131.464844 71.832031 131.324219 71.773438 131.183594 L 71.773438 146.277344 L 83.820312 146.277344 C 81.386719 145.074219 79.53125 142.914062 78.648438 140.101562" fill="#07689F"/></g><g id="change1_4"><path d="M 80.226562 68.347656 C 80.226562 66.84375 81.445312 65.621094 82.953125 65.621094 L 92.972656 65.621094 C 94.476562 65.621094 95.699219 66.84375 95.699219 68.347656 L 95.699219 78.367188 C 95.699219 79.871094 94.476562 81.089844 92.972656 81.089844 L 82.953125 81.089844 C 81.445312 81.089844 80.226562 79.871094 80.226562 78.367188 Z M 80.226562 44.464844 C 80.226562 42.960938 81.445312 41.738281 82.953125 41.738281 L 92.972656 41.738281 C 94.476562 41.738281 95.699219 42.960938 95.699219 44.464844 L 95.699219 54.484375 C 95.699219 55.988281 94.476562 57.210938 92.972656 57.210938 L 82.953125 57.210938 C 81.445312 57.210938 80.226562 55.988281 80.226562 54.484375 Z M 104.304688 68.347656 C 104.304688 66.84375 105.523438 65.621094 107.027344 65.621094 L 117.050781 65.621094 C 118.554688 65.621094 119.773438 66.84375 119.773438 68.347656 L 119.773438 78.367188 C 119.773438 79.871094 118.554688 81.089844 117.050781 81.089844 L 107.027344 81.089844 C 105.523438 81.089844 104.304688 79.871094 104.304688 78.367188 Z M 104.304688 44.464844 C 104.304688 42.960938 105.523438 41.738281 107.027344 41.738281 L 117.050781 41.738281 C 118.554688 41.738281 119.773438 42.960938 119.773438 44.464844 L 119.773438 54.484375 C 119.773438 55.988281 118.554688 57.210938 117.050781 57.210938 L 107.027344 57.210938 C 105.523438 57.210938 104.304688 55.988281 104.304688 54.484375 Z M 74.796875 107.105469 C 75.589844 106.460938 76.363281 105.917969 77.109375 105.390625 L 77.496094 105.117188 C 77.707031 104.96875 77.792969 104.84375 77.875 104.589844 L 77.921875 104.429688 C 78.171875 103.613281 78.433594 102.773438 78.726562 101.914062 C 79.105469 100.820312 79.609375 99.839844 80.226562 98.984375 L 80.226562 92.242188 C 80.226562 90.738281 81.445312 89.519531 82.953125 89.519531 L 92.972656 89.519531 C 94.421875 89.519531 95.609375 90.652344 95.691406 92.082031 C 97.082031 91.394531 98.492188 91.054688 99.960938 91.054688 C 101.421875 91.054688 102.859375 91.394531 104.308594 92.09375 C 104.382812 90.660156 105.570312 89.519531 107.027344 89.519531 L 117.050781 89.519531 C 118.554688 89.519531 119.773438 90.738281 119.773438 92.242188 L 119.773438 98.933594 C 120.347656 99.726562 120.8125 100.628906 121.15625 101.621094 C 121.539062 102.722656 121.890625 103.820312 122.226562 104.886719 C 122.265625 104.914062 122.3125 104.957031 122.371094 105 C 122.660156 105.210938 122.941406 105.414062 123.226562 105.621094 C 123.878906 106.09375 124.550781 106.582031 125.230469 107.117188 C 126.589844 108.191406 127.597656 109.5625 128.226562 111.089844 L 128.226562 40.355469 C 128.226562 36.421875 125.039062 33.230469 121.105469 33.230469 L 78.898438 33.230469 C 74.960938 33.230469 71.773438 36.421875 71.773438 40.355469 L 71.773438 111.078125 C 72.398438 109.585938 73.417969 108.234375 74.796875 107.105469" fill="#07689F"/></g><g id="change1_5"><path d="M 128.226562 131.207031 C 127.53125 132.863281 126.367188 134.34375 124.773438 135.523438 C 124.410156 135.789062 124.050781 136.046875 123.699219 136.300781 C 123.195312 136.664062 122.71875 137.003906 122.277344 137.347656 C 122.257812 137.359375 122.25 137.367188 122.25 137.371094 C 122.25 137.371094 122.222656 137.40625 122.195312 137.507812 C 121.933594 138.441406 121.640625 139.328125 121.355469 140.183594 L 121.332031 140.25 C 120.410156 143.023438 118.613281 145.105469 116.242188 146.277344 L 128.226562 146.277344 L 128.226562 131.207031" fill="#07689F"/></g><g id="change2_1"><path d="M 160.175781 78.414062 C 160.175781 79.917969 158.957031 81.136719 157.453125 81.136719 L 147.429688 81.136719 C 145.925781 81.136719 144.707031 79.917969 144.707031 78.414062 L 144.707031 68.394531 C 144.707031 66.886719 145.925781 65.667969 147.429688 65.667969 L 157.453125 65.667969 C 158.957031 65.667969 160.175781 66.886719 160.175781 68.394531 Z M 160.175781 102.292969 C 160.175781 103.800781 158.957031 105.019531 157.453125 105.019531 L 147.429688 105.019531 C 145.925781 105.019531 144.707031 103.800781 144.707031 102.292969 L 144.707031 92.273438 C 144.707031 90.769531 145.925781 89.550781 147.429688 89.550781 L 157.453125 89.550781 C 158.957031 89.550781 160.175781 90.769531 160.175781 92.273438 Z M 160.175781 126.191406 C 160.175781 127.695312 158.957031 128.917969 157.453125 128.917969 L 147.429688 128.917969 C 145.925781 128.917969 144.707031 127.695312 144.707031 126.191406 L 144.707031 116.171875 C 144.707031 114.667969 145.925781 113.445312 147.429688 113.445312 L 157.453125 113.445312 C 158.957031 113.445312 160.175781 114.667969 160.175781 116.171875 Z M 168.632812 62.347656 C 168.632812 59.480469 166.308594 57.160156 163.441406 57.160156 L 141.4375 57.160156 C 138.570312 57.160156 136.25 59.480469 136.25 62.347656 L 136.25 146.277344 L 168.632812 146.277344 L 168.632812 62.347656" fill="#0000000"/></g><g id="change2_2"><path d="M 55.296875 78.414062 C 55.296875 79.917969 54.078125 81.136719 52.574219 81.136719 L 42.550781 81.136719 C 41.046875 81.136719 39.828125 79.917969 39.828125 78.414062 L 39.828125 68.394531 C 39.828125 66.886719 41.046875 65.667969 42.550781 65.667969 L 52.574219 65.667969 C 54.078125 65.667969 55.296875 66.886719 55.296875 68.394531 Z M 55.296875 102.292969 C 55.296875 103.800781 54.078125 105.019531 52.574219 105.019531 L 42.550781 105.019531 C 41.046875 105.019531 39.828125 103.800781 39.828125 102.292969 L 39.828125 92.273438 C 39.828125 90.769531 41.046875 89.550781 42.550781 89.550781 L 52.574219 89.550781 C 54.078125 89.550781 55.296875 90.769531 55.296875 92.273438 Z M 55.296875 126.191406 C 55.296875 127.695312 54.078125 128.917969 52.574219 128.917969 L 42.550781 128.917969 C 41.046875 128.917969 39.828125 127.695312 39.828125 126.191406 L 39.828125 116.171875 C 39.828125 114.667969 41.046875 113.445312 42.550781 113.445312 L 52.574219 113.445312 C 54.078125 113.445312 55.296875 114.667969 55.296875 116.171875 Z M 63.75 62.347656 C 63.75 59.480469 61.425781 57.160156 58.5625 57.160156 L 36.558594 57.160156 C 33.691406 57.160156 31.367188 59.480469 31.367188 62.347656 L 31.367188 146.277344 L 63.75 146.277344 L 63.75 62.347656" fill="#07689F"/></g><g id="change2_3"><path d="M 176.582031 154.304688 L 23.417969 154.304688 C 22.746094 154.304688 22.199219 154.847656 22.199219 155.519531 L 22.199219 165.550781 C 22.199219 166.222656 22.746094 166.769531 23.417969 166.769531 L 176.582031 166.769531 C 177.253906 166.769531 177.800781 166.222656 177.800781 165.550781 L 177.800781 155.519531 C 177.800781 154.847656 177.253906 154.304688 176.582031 154.304688" fill="#07689F"/></g></g></svg>
