<?xml version="1.0" encoding="UTF-8" standalone="no"?>
  <svg xmlns="http://www.w3.org/2000/svg" xmlns:xlink="http://www.w3.org/1999/xlink" fill="#07689F" height="500" preserveAspectRatio="xMidYMid meet" version="1" viewBox="0.0 0.0 363.0 500.0" width="363" zoomAndPan="magnify">
    <g id="change1_1"><path d="M 97.96875 129.347656 L 178.457031 73.527344 C 179.382812 72.882812 180.449219 72.570312 181.515625 72.570312 C 182.589844 72.570312 183.648438 72.890625 184.574219 73.527344 L 265.082031 129.359375 C 266.527344 130.351562 268.527344 129.984375 269.53125 128.527344 C 270.019531 127.828125 270.214844 126.960938 270.046875 126.125 C 269.898438 125.285156 269.421875 124.550781 268.722656 124.058594 L 183.929688 65.253906 C 183.804688 65.171875 183.691406 65.089844 183.574219 64.988281 C 182.546875 64.140625 181.101562 64.027344 179.949219 64.65625 C 179.867188 64.71875 179.78125 64.785156 179.683594 64.847656 L 94.320312 124.050781 C 94.320312 124.050781 94.3125 124.050781 94.3125 124.058594 C 93.601562 124.550781 93.132812 125.285156 92.984375 126.125 C 92.820312 126.980469 93.011719 127.828125 93.5 128.527344 C 94.503906 129.984375 96.503906 130.351562 97.96875 129.347656"/>
      <path d="M 159.945312 170.476562 L 159.945312 235.101562 L 203.089844 235.101562 L 203.089844 170.476562 L 159.945312 170.476562"/>
      <path d="M 288.582031 32.449219 L 288.582031 74.457031 L 330.585938 74.457031 Z M 288.582031 32.449219"/>
      <path d="M 181.515625 149.617188 C 168.707031 149.617188 158.289062 139.195312 158.289062 126.390625 C 158.289062 113.574219 168.707031 103.15625 181.515625 103.15625 C 194.328125 103.15625 204.746094 113.574219 204.746094 126.390625 C 204.746094 139.195312 194.328125 149.617188 181.515625 149.617188 Z M 181.515625 84.445312 L 112.0625 132.617188 L 112.0625 235.101562 L 149.222656 235.101562 L 149.222656 165.113281 C 149.222656 162.15625 151.621094 159.75 154.582031 159.75 L 208.449219 159.75 C 211.417969 159.75 213.8125 162.15625 213.8125 165.113281 L 213.8125 235.101562 L 250.976562 235.101562 L 250.976562 132.617188 L 181.515625 84.445312"/>
      <path d="M 181.515625 113.863281 C 174.609375 113.863281 169.011719 119.480469 169.011719 126.371094 C 169.011719 133.265625 174.625 138.882812 181.515625 138.882812 C 188.410156 138.882812 194.023438 133.265625 194.023438 126.371094 C 194.023438 119.480469 188.410156 113.863281 181.515625 113.863281"/>
      <path d="M 301.5625 291.398438 L 61.46875 291.398438 C 58.511719 291.398438 56.109375 288.992188 56.109375 286.035156 C 56.109375 283.078125 58.511719 280.679688 61.46875 280.679688 L 301.5625 280.679688 C 304.523438 280.679688 306.925781 283.078125 306.925781 286.035156 C 306.925781 288.992188 304.523438 291.398438 301.5625 291.398438 Z M 261.699219 437.046875 C 259.441406 438.964844 256.0625 438.691406 254.144531 436.429688 C 241.144531 421.101562 219.386719 432.441406 219.175781 432.5625 C 217.652344 433.363281 215.839844 433.394531 214.289062 432.644531 L 192.632812 422.0625 L 169.011719 438.496094 C 167.363281 439.636719 165.238281 439.769531 163.464844 438.851562 C 161.699219 437.929688 160.59375 436.09375 160.59375 434.105469 L 160.59375 420.996094 L 143.316406 436.398438 C 141.722656 437.820312 139.4375 438.152344 137.492188 437.257812 C 135.558594 436.351562 134.335938 434.394531 134.386719 432.261719 L 134.808594 415.792969 C 128.941406 416.125 123.679688 416.640625 118.953125 417.277344 C 118.535156 418.015625 118.128906 418.761719 117.707031 419.511719 C 108.105469 438.65625 95.203125 446.507812 84.886719 446.507812 C 82.972656 446.507812 81.128906 446.234375 79.421875 445.710938 C 73.066406 443.761719 69.328125 438.324219 70.140625 432.1875 C 70.773438 427.355469 75.855469 413.441406 112.214844 407.433594 C 117.730469 397.746094 123.003906 389.074219 128.054688 381.324219 C 118.019531 382.074219 106.800781 381.761719 94.289062 380.039062 C 91.355469 379.632812 89.304688 376.929688 89.710938 373.996094 C 90.117188 371.066406 92.820312 369.011719 95.757812 369.417969 C 111.085938 371.527344 124.484375 371.367188 135.953125 369.644531 C 161.753906 333.058594 180.3125 322.523438 190.1875 326.5 C 194.261719 328.140625 198.203125 333.082031 195.929688 341.621094 C 192.777344 353.480469 176.082031 372.867188 142.210938 379.4375 C 137.078125 386.90625 131.523438 395.613281 125.574219 405.730469 C 130.058594 405.316406 134.890625 405.015625 140.117188 404.816406 C 141.601562 404.765625 143.039062 405.324219 144.089844 406.363281 C 145.140625 407.402344 145.71875 408.824219 145.675781 410.308594 L 145.414062 420.148438 L 162.386719 405.023438 C 163.960938 403.621094 166.210938 403.269531 168.144531 404.136719 C 170.070312 405.007812 171.3125 406.910156 171.3125 409.023438 L 171.3125 423.835938 L 189.09375 411.464844 C 190.691406 410.355469 192.761719 410.203125 194.511719 411.050781 L 216.660156 421.875 C 227.789062 416.941406 248.628906 413.339844 262.328125 429.492188 C 264.242188 431.757812 263.957031 435.132812 261.699219 437.046875 Z M 82.433594 124.199219 C 83.109375 120.53125 85.160156 117.363281 88.222656 115.253906 L 173.136719 56.363281 C 173.273438 56.246094 173.414062 56.132812 173.5625 56.03125 C 178.613281 52.53125 185.410156 52.761719 190.195312 56.566406 L 274.820312 115.261719 C 277.878906 117.371094 279.933594 120.539062 280.597656 124.207031 C 281.269531 127.863281 280.476562 131.570312 278.355469 134.636719 C 275.65625 138.535156 271.308594 140.632812 266.878906 140.632812 C 265.117188 140.632812 263.378906 140.164062 261.691406 139.484375 L 261.691406 240.464844 C 261.691406 243.421875 259.285156 245.820312 256.328125 245.820312 L 106.703125 245.820312 C 103.742188 245.820312 101.347656 243.421875 101.347656 240.464844 L 101.347656 139.601562 C 95.425781 141.988281 88.445312 140.070312 84.675781 134.628906 C 82.5625 131.558594 81.773438 127.863281 82.433594 124.199219 Z M 283.222656 85.171875 C 280.265625 85.171875 277.867188 82.769531 277.867188 79.8125 L 277.867188 24.875 L 24.867188 24.875 L 24.867188 475.136719 L 338.167969 475.136719 L 338.167969 85.171875 L 283.222656 85.171875"/>
      <path d="M 348.882812 480.492188 C 348.882812 483.449219 346.484375 485.847656 343.527344 485.847656 L 19.507812 485.847656 C 16.550781 485.847656 14.152344 483.449219 14.152344 480.492188 L 14.152344 19.511719 C 14.152344 16.554688 16.550781 14.152344 19.507812 14.152344 L 283.210938 14.152344 C 283.453125 14.152344 283.664062 14.261719 283.894531 14.289062 C 284.152344 14.324219 284.363281 14.371094 284.613281 14.4375 C 285.46875 14.675781 286.261719 15.054688 286.886719 15.644531 C 286.925781 15.679688 286.980469 15.679688 287.015625 15.71875 L 347.324219 76.023438 C 347.34375 76.042969 347.34375 76.078125 347.371094 76.105469 C 347.980469 76.734375 348.355469 77.546875 348.605469 78.410156 C 348.671875 78.667969 348.714844 78.890625 348.753906 79.148438 C 348.78125 79.378906 348.882812 79.578125 348.882812 79.8125 Z M 362.71875 76.679688 C 362.671875 76.421875 362.691406 76.160156 362.636719 75.90625 C 362.304688 74.292969 361.722656 72.789062 361.023438 71.355469 C 360.804688 70.910156 360.574219 70.488281 360.316406 70.054688 C 359.53125 68.699219 358.628906 67.429688 357.542969 66.304688 C 357.460938 66.214844 357.414062 66.101562 357.328125 66.011719 L 297.039062 5.722656 C 293.355469 2.035156 288.453125 0 283.230469 0 C 283.210938 0 283.203125 0.0078125 283.183594 0.0078125 L 19.507812 0.0078125 C 8.753906 0.0078125 0 8.761719 0 19.511719 L 0 480.488281 C 0 491.25 8.753906 500 19.507812 500 L 343.527344 500 C 354.28125 500 363.03125 491.25 363.03125 480.488281 L 363.03125 79.8125 C 363.03125 78.742188 362.886719 77.710938 362.71875 76.679688"/>
      <path d="M 181.636719 346.378906 C 185.425781 341.304688 186.039062 337.613281 185.859375 336.390625 C 185.75 336.371094 185.644531 336.371094 185.523438 336.371094 C 181.984375 336.371094 170.554688 342.054688 152.109375 365.859375 C 166.15625 361.207031 175.988281 353.9375 181.636719 346.378906"/>
      <path d="M 80.761719 433.582031 C 80.722656 433.898438 80.589844 434.851562 82.5625 435.457031 C 87.320312 436.910156 96.832031 433.671875 105.332031 419.785156 C 86.886719 424.207031 81.136719 430.757812 80.761719 433.582031"/>
    </g>
  </svg>
